<svg width="26" height="26" viewBox="0 0 26 26" fill="none" xmlns="http://www.w3.org/2000/svg">
<rect width="26" height="26" rx="4" fill="#E8E8F8"/>
<g clip-path="url(#clip0_1_837)">
<path d="M10.1705 10.7812C10.193 11.2634 10.3353 11.7393 10.5736 12.1578L9.63854 12.6755C9.31797 12.0978 9.10411 11.4491 9.10548 10.7812H10.1707H10.1705Z" fill="#6764CF"/>
<path d="M17.0794 10.7812C17.0808 11.4491 16.8669 12.0978 16.5464 12.6755L15.6113 12.1578C15.8494 11.7395 15.9916 11.2634 16.0144 10.7812H17.0797H17.0794Z" fill="#6764CF"/>
<path d="M12.9923 6.70312V7.75022C12.9923 7.81294 12.7545 7.7893 12.6936 7.7968C12.3591 7.83816 12.0383 7.95178 11.7396 8.10198C11.6874 8.09811 11.2063 7.25576 11.207 7.20349C11.2079 7.14419 11.4154 7.07011 11.4756 7.04216C11.9362 6.82742 12.4866 6.71949 12.9921 6.70312H12.9923Z" fill="#6764CF"/>
<path d="M10.1707 10.5759H9.10547C9.10843 10.0755 9.2197 9.55584 9.42216 9.09842C9.4534 9.02797 9.53776 8.79824 9.60821 8.79688C9.65883 8.79574 10.4689 9.25612 10.4844 9.30429C10.51 9.38337 10.4085 9.51016 10.3791 9.59311C10.269 9.90305 10.1778 10.2475 10.1707 10.5761V10.5759Z" fill="#6764CF"/>
<path d="M17.0803 10.5761H16.0151C16.008 10.2475 15.9168 9.90305 15.8067 9.5931C15.7773 9.51016 15.6758 9.38337 15.7013 9.30429C15.7169 9.25612 16.5269 8.79574 16.5776 8.79688C16.6476 8.79847 16.7331 9.02843 16.7636 9.09864C16.9633 9.55788 17.0789 10.0746 17.0803 10.5761Z" fill="#6764CF"/>
<path d="M13.1936 6.70456C13.2444 6.65389 14.0732 6.82636 14.2011 6.86249C14.3842 6.91407 14.7743 7.04814 14.9294 7.14062C14.9606 7.15925 14.9779 7.16039 14.9786 7.20515C14.9795 7.25742 14.4982 8.09955 14.446 8.10364C14.1473 7.95344 13.8265 7.83982 13.492 7.79846C13.4312 7.79096 13.1934 7.8146 13.1934 7.75188V6.70479L13.1936 6.70456Z" fill="#6764CF"/>
<path d="M11.0309 7.30786C11.0721 7.44965 11.5407 8.12681 11.5213 8.20293C11.3195 8.37926 11.1002 8.52515 10.9201 8.72534C10.8455 8.80828 10.7119 9.03552 10.6476 9.08528C10.6212 9.10573 10.6018 9.12118 10.5664 9.10755L9.73857 8.63854C9.70733 8.61695 9.70847 8.59241 9.71394 8.55878C9.72261 8.50492 9.97318 8.18702 10.0279 8.12294C10.2103 7.90889 10.4543 7.67916 10.68 7.51055C10.7349 7.46965 10.9794 7.27786 11.0311 7.30786H11.0309Z" fill="#6764CF"/>
<path d="M15.1553 7.31118C15.1829 7.29527 15.2119 7.31231 15.2369 7.32277C15.3167 7.35594 15.6052 7.5825 15.685 7.65135C15.822 7.76928 16.0272 7.97402 16.1451 8.11081C16.2 8.17444 16.4579 8.50961 16.4716 8.56256C16.4805 8.59687 16.4786 8.62095 16.4472 8.64209L15.6195 9.1111C15.5842 9.12451 15.5648 9.10905 15.5384 9.08883C15.4741 9.03907 15.3405 8.81183 15.2659 8.72889C15.0858 8.5287 14.8664 8.38259 14.6647 8.20648C14.6451 8.13058 15.1136 7.4532 15.1551 7.3114L15.1553 7.31118Z" fill="#6764CF"/>
<path d="M13.0141 10.7857C13.5741 10.718 13.8415 11.4435 13.3876 11.7321C13.0588 11.9412 12.6106 11.7542 12.567 11.3585C12.5385 11.0986 12.7517 10.8173 13.0141 10.7857Z" fill="#6764CF"/>
<path d="M13.4234 10.6386C13.2031 10.5568 12.9806 10.5573 12.7617 10.6386L13.0928 8.42969L13.4236 10.6386H13.4234Z" fill="#6764CF"/>
<path d="M7.38876 21C6.64183 20.8312 6.07456 20.2049 6.00114 19.44L6 6.60086C6.07524 5.76555 6.72778 5.09771 7.56295 5L18.4583 5.0025C19.3062 5.12702 19.9362 5.79146 19.9998 6.64745V19.3719C19.9457 20.1599 19.3707 20.8509 18.5875 20.9977M18.9382 20.0065C19.1612 19.79 19.2517 19.5473 19.2718 19.2369C19.2503 15.0051 19.3094 10.767 19.2421 6.53928C19.1126 6.05437 18.7355 5.75987 18.2341 5.72601H7.67581C7.17261 5.78737 6.75697 6.20479 6.72961 6.71448V19.3276C6.76905 19.8322 7.15187 20.2279 7.65301 20.2933H18.3481C18.5807 20.2554 18.7718 20.1681 18.9382 20.0065Z" fill="#6764CF"/>
<path d="M13.3312 14.7501H14.6137L12.6586 18.3849V16.0053H11.3866C11.3843 16.0053 11.3446 15.9673 11.3654 15.9535C11.7092 15.3172 12.0583 14.6844 12.4003 14.0468C12.4326 13.9865 12.4625 13.9259 12.4988 13.8586C12.7671 13.3582 13.038 12.8565 13.2897 12.3446C13.2979 12.3375 13.3314 12.3791 13.3314 12.3839V14.7503L13.3312 14.7501Z" fill="#6764CF"/>
<path d="M17.1199 19.0287C17.3058 19.2282 17.171 19.6461 16.8666 19.6352L9.0904 19.6348C8.66404 19.5507 8.70554 18.9394 9.13555 18.9062H16.8438C16.9359 18.9074 17.0584 18.9626 17.1199 19.0287Z" fill="#6764CF"/>
</g>
<defs>
<clipPath id="clip0_1_837">
<rect width="14" height="16" fill="white" transform="translate(6 5)"/>
</clipPath>
</defs>
</svg>
