<svg width="26" height="26" viewBox="0 0 26 26" fill="none" xmlns="http://www.w3.org/2000/svg">
<rect width="26" height="26" rx="4" fill="#FCF1DC"/>
<g clip-path="url(#clip0_1_805)">
<path d="M13 14.7431L15.6853 10.0001L15.042 13.257H17L14.2867 18.0001L14.958 14.7431H13Z" fill="#EA9F12"/>
<path d="M8 13.9289L11.3566 8.00006L10.5524 12.0712H13L9.60839 18.0001L10.4476 13.9289H8Z" fill="#EA9F12"/>
<path d="M9.03513 7.45427C10.1962 6.62243 11.5675 6.18274 13.0009 6.18274V6.48254C13.0009 6.66812 13.2071 6.77934 13.3622 6.67747L14.3128 6.05308C14.4531 5.96091 14.4531 5.75531 14.3128 5.66313L13.3622 5.03875C13.207 4.93687 13.0009 5.0481 13.0009 5.23367V5.53348C11.4311 5.53348 9.92898 6.01515 8.657 6.92646C8.0447 7.3651 7.5034 7.89193 7.0481 8.49233C6.65647 9.00876 6.33524 9.57079 6.09065 10.167C6.02053 10.338 6.10803 10.5328 6.28188 10.5951C6.44558 10.6537 6.62596 10.5727 6.69184 10.4118C7.17784 9.22582 7.98313 8.20796 9.03504 7.45436L9.03513 7.45427Z" fill="#EA9F12"/>
<path d="M18.952 17.5047C19.3436 16.9882 19.6648 16.4262 19.9094 15.8299C19.9795 15.659 19.892 15.4642 19.7181 15.4019C19.5544 15.3433 19.374 15.4243 19.3081 15.5852C18.8221 16.7712 18.0168 17.789 16.9649 18.5426C15.8038 19.3745 14.4325 19.8142 12.9991 19.8142V19.5144C12.9991 19.3288 12.7929 19.2176 12.6379 19.3194L11.6872 19.9438C11.547 20.036 11.547 20.2416 11.6872 20.3338L12.6379 20.9582C12.793 21.06 12.9991 20.9488 12.9991 20.7632V20.4634C14.569 20.4634 16.0711 19.9817 17.343 19.0704C17.9553 18.6318 18.4967 18.105 18.9519 17.5046L18.952 17.5047Z" fill="#EA9F12"/>
<path d="M5.53341 13.0031C5.53341 14.5729 6.01509 16.075 6.9264 17.347C7.36504 17.9593 7.89187 18.5006 8.49227 18.9559C9.0087 19.3475 9.57072 19.6688 10.167 19.9134C10.3379 19.9835 10.5328 19.896 10.595 19.7221C10.6536 19.5584 10.5726 19.3781 10.4117 19.3121C9.22576 18.8261 8.2079 18.0208 7.4543 16.9689C6.62246 15.8078 6.18276 14.4365 6.18276 13.0031H6.48257C6.66814 13.0031 6.77937 12.7969 6.67749 12.6418L6.05311 11.6912C5.96093 11.5509 5.75533 11.5509 5.66316 11.6912L5.03869 12.6418C4.93681 12.797 5.04803 13.0031 5.23361 13.0031H5.53341Z" fill="#EA9F12"/>
<path d="M18.5465 9.03128C19.3783 10.1924 19.818 11.5637 19.818 12.9971H19.5182C19.3326 12.9971 19.2214 13.2033 19.3233 13.3583L19.9477 14.309C20.0398 14.4492 20.2454 14.4492 20.3376 14.309L20.962 13.3583C21.0639 13.2032 20.9526 12.9971 20.7671 12.9971H20.4673C20.4673 11.4272 19.9856 9.92513 19.0743 8.65316C18.6356 8.04085 18.1088 7.49955 17.5085 7.04425C16.9921 6.65263 16.43 6.33139 15.8338 6.08681C15.6629 6.01669 15.468 6.10418 15.4057 6.27812C15.3472 6.44182 15.4281 6.6222 15.589 6.68809C16.775 7.17408 17.7929 7.97938 18.5465 9.03128Z" fill="#EA9F12"/>
</g>
<defs>
<clipPath id="clip0_1_805">
<rect width="16" height="16" fill="white" transform="translate(5 5)"/>
</clipPath>
</defs>
</svg>
