<svg width="22" height="22" viewBox="0 0 22 22" fill="none" xmlns="http://www.w3.org/2000/svg">
<rect width="22" height="22" rx="4" fill="#FDF6EA"/>
<g clip-path="url(#clip0_1_906)">
<path d="M7.56047 7.735C7.19004 7.735 3.94141 7.7134 3.94141 6.97785C3.94141 6.2423 7.19004 6.2207 7.56047 6.2207C7.9309 6.2207 11.1795 6.2423 11.1795 6.97785C11.1795 7.7134 7.9309 7.735 7.56047 7.735ZM4.28911 6.97899C4.47773 7.13588 5.56856 7.40417 7.55933 7.40417C9.5501 7.40417 10.6409 7.13588 10.8296 6.97899C10.6409 6.8221 9.5501 6.5538 7.55933 6.5538C5.56856 6.5538 4.47773 6.8221 4.28911 6.97899Z" fill="#E99D2D"/>
<path d="M7.56047 9.29893C7.19004 9.29893 3.94141 9.27733 3.94141 8.54178V7.03317C3.94141 6.94108 4.01526 6.86719 4.1073 6.86719C4.19934 6.86719 4.2732 6.94108 4.2732 7.03317V8.52473C4.40046 8.67821 5.49584 8.96697 7.56047 8.96697C9.62509 8.96697 10.7216 8.67934 10.8489 8.52473V7.05136C10.8489 6.95927 10.9227 6.88538 11.0148 6.88538C11.1068 6.88538 11.1807 6.95927 11.1807 7.05136V8.54178C11.1807 9.27733 7.93203 9.29893 7.5616 9.29893H7.56047Z" fill="#E99D2D"/>
<path d="M4.80652 7.40039H4.64062V8.8101H4.80652V7.40039Z" fill="#E99D2D"/>
<path d="M5.61121 7.54297H5.44531V9.02885H5.61121V7.54297Z" fill="#E99D2D"/>
<path d="M6.61316 7.59766H6.44727V9.11082H6.61316V7.59766Z" fill="#E99D2D"/>
<path d="M7.56238 7.66016H7.39648V9.14603H7.56238V7.66016Z" fill="#E99D2D"/>
<path d="M8.44715 7.64062H8.28125V9.14469H8.44715V7.64062Z" fill="#E99D2D"/>
<path d="M9.20887 7.57031H9.04297V9.03004H9.20887V7.57031Z" fill="#E99D2D"/>
<path d="M10.0507 7.49805H9.88477V8.90321H10.0507V7.49805Z" fill="#E99D2D"/>
<path d="M10.5682 7.32812H10.4023V8.79581H10.5682V7.32812Z" fill="#E99D2D"/>
<path d="M7.56033 9.8947C7.19103 9.8947 3.94922 9.87424 3.94922 9.14551C3.94922 8.8954 4.28442 8.76807 4.53668 8.69531L4.62531 8.99772C4.4026 9.06252 4.31283 9.11822 4.27988 9.14665C4.45373 9.30467 5.54229 9.57865 7.56146 9.57865C9.58064 9.57865 10.6692 9.30467 10.843 9.14665C10.809 9.11936 10.7203 9.06252 10.4976 8.99772L10.5862 8.69531C10.8385 8.76921 11.1726 8.8954 11.1726 9.14551C11.1726 9.8731 7.93075 9.8947 7.56146 9.8947H7.56033Z" fill="#E99D2D"/>
<path d="M7.56047 11.4649C7.19004 11.4649 3.94141 11.4433 3.94141 10.7078V9.19918C3.94141 9.1071 4.01526 9.0332 4.1073 9.0332C4.19934 9.0332 4.2732 9.1071 4.2732 9.19918V10.6907C4.40046 10.8442 5.49584 11.133 7.56047 11.133C9.62509 11.133 10.7216 10.8454 10.8489 10.6907V9.21737C10.8489 9.12529 10.9227 9.05139 11.0148 9.05139C11.1068 9.05139 11.1807 9.12529 11.1807 9.21737V10.7078C11.1807 11.4433 7.93203 11.4649 7.5616 11.4649H7.56047Z" fill="#E99D2D"/>
<path d="M4.80652 9.56641H4.64062V10.9761H4.80652V9.56641Z" fill="#E99D2D"/>
<path d="M5.61121 9.70898H5.44531V11.1949H5.61121V9.70898Z" fill="#E99D2D"/>
<path d="M6.61316 9.76367H6.44727V11.2768H6.61316V9.76367Z" fill="#E99D2D"/>
<path d="M7.56238 9.82617H7.39648V11.312H7.56238V9.82617Z" fill="#E99D2D"/>
<path d="M8.44715 9.80859H8.28125V11.3127H8.44715V9.80859Z" fill="#E99D2D"/>
<path d="M9.20887 9.73633H9.04297V11.1961H9.20887V9.73633Z" fill="#E99D2D"/>
<path d="M10.0507 9.66602H9.88477V11.0712H10.0507V9.66602Z" fill="#E99D2D"/>
<path d="M10.5682 9.49414H10.4023V10.9618H10.5682V9.49414Z" fill="#E99D2D"/>
<path d="M6.61916 12.0593C6.24987 12.0593 3.00806 12.0389 3.00806 11.3101C3.00806 11.0532 3.36371 10.9247 3.63074 10.8497C3.63415 10.8497 3.63869 10.8474 3.6421 10.8474L4.11707 10.7531C4.20229 10.736 4.28524 10.7917 4.30228 10.877C4.31933 10.9623 4.26365 11.0452 4.17843 11.0623L3.70914 11.1555C3.46711 11.2237 3.37167 11.2828 3.33758 11.3124C3.51143 11.4704 4.59999 11.7444 6.61916 11.7444C8.63834 11.7444 9.7269 11.4704 9.90075 11.3124C9.88825 11.3022 9.86666 11.2874 9.83371 11.2692C9.75644 11.2283 9.72803 11.1328 9.76894 11.0555C9.80985 10.9782 9.90529 10.9497 9.98256 10.9907C10.1473 11.0782 10.2303 11.1862 10.2303 11.3101C10.2303 12.0377 6.98846 12.0593 6.61916 12.0593Z" fill="#E99D2D"/>
<path d="M6.61906 13.631C6.24863 13.631 3 13.6094 3 12.8738V11.3652C3 11.2731 3.07386 11.1992 3.1659 11.1992C3.25794 11.1992 3.33179 11.2731 3.33179 11.3652V12.8568C3.45906 13.0102 4.55444 13.299 6.6202 13.299C8.68596 13.299 9.78134 13.0114 9.90746 12.8568V11.3834C9.90746 11.2913 9.98132 11.2174 10.0734 11.2174C10.1654 11.2174 10.2393 11.2913 10.2393 11.3834V12.8738C10.2393 13.6094 6.99063 13.631 6.6202 13.631H6.61906Z" fill="#E99D2D"/>
<path d="M3.86512 11.7324H3.69922V13.1421H3.86512V11.7324Z" fill="#E99D2D"/>
<path d="M4.67176 11.875H4.50586V13.3609H4.67176V11.875Z" fill="#E99D2D"/>
<path d="M5.67371 11.9297H5.50781V13.4428H5.67371V11.9297Z" fill="#E99D2D"/>
<path d="M6.62293 11.9922H6.45703V13.4781H6.62293V11.9922Z" fill="#E99D2D"/>
<path d="M7.50769 11.9746H7.3418V13.4786H7.50769V11.9746Z" fill="#E99D2D"/>
<path d="M8.26746 11.9023H8.10156V13.3621H8.26746V11.9023Z" fill="#E99D2D"/>
<path d="M9.10926 11.832H8.94336V13.2372H9.10926V11.832Z" fill="#E99D2D"/>
<path d="M9.62879 11.6602H9.46289V13.1278H9.62879V11.6602Z" fill="#E99D2D"/>
<path d="M7.56057 14.2266C7.19128 14.2266 3.94946 14.2061 3.94946 13.4786C3.94946 13.3467 4.04377 13.233 4.23126 13.1409L4.36989 13.424C4.32216 13.4467 4.29489 13.4661 4.27898 13.4786C4.45284 13.6366 5.5414 13.9106 7.56057 13.9106C9.57974 13.9106 10.6683 13.6366 10.8422 13.4786C10.8092 13.4513 10.7217 13.3956 10.5058 13.3319L9.97063 13.2034L10.0445 12.8965L10.5876 13.0272C10.8433 13.1023 11.1728 13.2284 11.1728 13.4763C11.1728 14.2039 7.931 14.2243 7.56171 14.2243L7.56057 14.2266Z" fill="#E99D2D"/>
<path d="M7.56047 15.797C7.19004 15.797 3.94141 15.7754 3.94141 15.0398V13.5312C3.94141 13.4391 4.01526 13.3652 4.1073 13.3652C4.19934 13.3652 4.2732 13.4391 4.2732 13.5312V15.0228C4.40046 15.1763 5.49584 15.465 7.56047 15.465C9.62509 15.465 10.7216 15.1774 10.8489 15.0228V13.5494C10.8489 13.4573 10.9227 13.3834 11.0148 13.3834C11.1068 13.3834 11.1807 13.4573 11.1807 13.5494V15.0398C11.1807 15.7754 7.93203 15.797 7.5616 15.797H7.56047Z" fill="#E99D2D"/>
<path d="M4.80652 13.9004H4.64062V15.3101H4.80652V13.9004Z" fill="#E99D2D"/>
<path d="M5.61121 14.043H5.44531V15.5288H5.61121V14.043Z" fill="#E99D2D"/>
<path d="M6.61316 14.0957H6.44727V15.6089H6.61316V14.0957Z" fill="#E99D2D"/>
<path d="M7.56238 14.1582H7.39648V15.6441H7.56238V14.1582Z" fill="#E99D2D"/>
<path d="M8.44715 14.1406H8.28125V15.6447H8.44715V14.1406Z" fill="#E99D2D"/>
<path d="M9.20887 14.0684H9.04297V15.5281H9.20887V14.0684Z" fill="#E99D2D"/>
<path d="M10.0507 13.998H9.88477V15.4032H10.0507V13.998Z" fill="#E99D2D"/>
<path d="M10.5682 13.8279H10.4023V15.2956H10.5682V13.8279Z" fill="#E99D2D"/>
<path d="M7.56057 16.4304C7.19128 16.4304 3.94946 16.41 3.94946 15.6824C3.94946 15.4766 4.15968 15.33 4.62896 15.206L4.7085 15.5119C4.42329 15.5869 4.31648 15.6528 4.27899 15.6835C4.45284 15.8415 5.5414 16.1155 7.56057 16.1155C9.57975 16.1155 10.6683 15.8415 10.8422 15.6835C10.8035 15.6517 10.6899 15.5823 10.3854 15.505L10.4626 15.1992C10.9524 15.3231 11.1717 15.4721 11.1717 15.6824C11.1717 16.41 7.92986 16.4304 7.56057 16.4304Z" fill="#E99D2D"/>
<path d="M7.56047 18.0001C7.19004 18.0001 3.94141 17.9785 3.94141 17.243V15.7343C3.94141 15.6423 4.01526 15.5684 4.1073 15.5684C4.19934 15.5684 4.2732 15.6423 4.2732 15.7343V17.2259C4.40046 17.3794 5.49584 17.6681 7.56047 17.6681C9.62509 17.6681 10.7216 17.3805 10.8489 17.2259V15.7525C10.8489 15.6604 10.9227 15.5865 11.0148 15.5865C11.1068 15.5865 11.1807 15.6604 11.1807 15.7525V17.243C11.1807 17.9785 7.93203 18.0001 7.5616 18.0001H7.56047Z" fill="#E99D2D"/>
<path d="M4.80652 16.1035H4.64062V17.5132H4.80652V16.1035Z" fill="#E99D2D"/>
<path d="M5.61121 16.2461H5.44531V17.732H5.61121V16.2461Z" fill="#E99D2D"/>
<path d="M6.61316 16.2988H6.44727V17.812H6.61316V16.2988Z" fill="#E99D2D"/>
<path d="M7.56238 16.3613H7.39648V17.8472H7.56238V16.3613Z" fill="#E99D2D"/>
<path d="M8.44715 16.3438H8.28125V17.8478H8.44715V16.3438Z" fill="#E99D2D"/>
<path d="M9.20887 16.2715H9.04297V17.7312H9.20887V16.2715Z" fill="#E99D2D"/>
<path d="M10.0507 16.2012H9.88477V17.6063H10.0507V16.2012Z" fill="#E99D2D"/>
<path d="M10.5682 16.0311H10.4023V17.4988H10.5682V16.0311Z" fill="#E99D2D"/>
<path d="M15.381 14.2722C15.0106 14.2722 11.762 14.2506 11.762 13.5151C11.762 12.7795 15.0106 12.7579 15.381 12.7579C15.7515 12.7579 19.0001 12.7795 19.0001 13.5151C19.0001 14.2506 15.7515 14.2722 15.381 14.2722ZM12.1108 13.5151C12.2994 13.672 13.3903 13.9403 15.381 13.9403C17.3718 13.9403 18.4626 13.672 18.6512 13.5151C18.4626 13.3582 17.3718 13.0899 15.381 13.0899C13.3903 13.0899 12.2994 13.3582 12.1108 13.5151Z" fill="#E99D2D"/>
<path d="M15.381 15.8343C15.0106 15.8343 11.762 15.8127 11.762 15.0771V13.5685C11.762 13.4764 11.8358 13.4025 11.9279 13.4025C12.0199 13.4025 12.0938 13.4764 12.0938 13.5685V15.0601C12.221 15.2136 13.3164 15.5023 15.381 15.5023C17.4456 15.5023 18.5422 15.2147 18.6694 15.0601V13.5867C18.6694 13.4946 18.7433 13.4207 18.8353 13.4207C18.9274 13.4207 19.0012 13.4946 19.0012 13.5867V15.0771C19.0012 15.8127 15.7526 15.8343 15.3822 15.8343H15.381Z" fill="#E99D2D"/>
<path d="M12.6499 13.9357H12.4397V15.3455H12.6499V13.9357Z" fill="#E99D2D"/>
<path d="M13.4546 14.0783H13.2444V15.5642H13.4546V14.0783Z" fill="#E99D2D"/>
<path d="M14.4566 14.133H14.2463V15.6462H14.4566V14.133Z" fill="#E99D2D"/>
<path d="M15.4058 14.1955H15.1956V15.6814H15.4058V14.1955Z" fill="#E99D2D"/>
<path d="M16.2905 14.1779H16.0803V15.682H16.2905V14.1779Z" fill="#E99D2D"/>
<path d="M17.0523 14.1057H16.842V15.5654H17.0523V14.1057Z" fill="#E99D2D"/>
<path d="M17.8921 14.0354H17.6819V15.4405H17.8921V14.0354Z" fill="#E99D2D"/>
<path d="M18.4116 13.8635H18.2014V15.3312H18.4116V13.8635Z" fill="#E99D2D"/>
<path d="M15.3809 16.4308C15.0116 16.4308 11.7698 16.4103 11.7698 15.6827C11.7698 15.4326 12.105 15.3053 12.3572 15.2325L12.4459 15.5361C12.2232 15.6009 12.1334 15.6566 12.1004 15.685C12.2743 15.843 13.3628 16.117 15.382 16.117C17.4012 16.117 18.4898 15.843 18.6636 15.685C18.6295 15.6577 18.5409 15.6009 18.3182 15.5361L18.4068 15.2337C18.6591 15.3076 18.9931 15.4338 18.9931 15.6839C18.9931 16.4115 15.7513 16.4319 15.382 16.4319L15.3809 16.4308Z" fill="#E99D2D"/>
<path d="M15.381 18C15.0106 18 11.762 17.9784 11.762 17.2428V15.7342C11.762 15.6421 11.8358 15.5683 11.9279 15.5683C12.0199 15.5683 12.0938 15.6421 12.0938 15.7342V17.2258C12.221 17.3793 13.3164 17.668 15.381 17.668C17.4456 17.668 18.5422 17.3804 18.6694 17.2258V15.7524C18.6694 15.6603 18.7433 15.5864 18.8353 15.5864C18.9274 15.5864 19.0012 15.6603 19.0012 15.7524V17.2428C19.0012 17.9784 15.7526 18 15.3822 18H15.381Z" fill="#E99D2D"/>
<path d="M12.6499 16.1034H12.4397V17.5131H12.6499V16.1034Z" fill="#E99D2D"/>
<path d="M13.4546 16.246H13.2444V17.7319H13.4546V16.246Z" fill="#E99D2D"/>
<path d="M14.4566 16.2987H14.2463V17.8119H14.4566V16.2987Z" fill="#E99D2D"/>
<path d="M15.4058 16.3612H15.1956V17.8471H15.4058V16.3612Z" fill="#E99D2D"/>
<path d="M16.2905 16.3436H16.0803V17.8477H16.2905V16.3436Z" fill="#E99D2D"/>
<path d="M17.0523 16.2714H16.842V17.7311H17.0523V16.2714Z" fill="#E99D2D"/>
<path d="M17.8921 16.2011H17.6819V17.6062H17.8921V16.2011Z" fill="#E99D2D"/>
<path d="M18.4114 16.031H18.2012V17.4986H18.4114V16.031Z" fill="#E99D2D"/>
<path d="M15.3858 11.7723C13.52 11.7723 12.002 10.2534 12.002 8.38671C12.002 6.51998 13.5189 5 15.3858 5C17.2527 5 18.7697 6.51885 18.7697 8.38557C18.7697 10.2523 17.2516 11.7711 15.3858 11.7711V11.7723ZM15.3858 5.33196C13.703 5.33196 12.3337 6.70188 12.3337 8.38557C12.3337 10.0693 13.703 11.4392 15.3858 11.4392C17.0686 11.4392 18.4379 10.0693 18.4379 8.38557C18.4379 6.70188 17.0686 5.33196 15.3858 5.33196Z" fill="#E99D2D"/>
<path d="M15.3853 10.9255C13.9854 10.9255 12.8457 9.78638 12.8457 8.38463C12.8457 6.98288 13.9843 5.84375 15.3853 5.84375C16.7863 5.84375 17.9249 6.98288 17.9249 8.38463C17.9249 9.78638 16.7863 10.9255 15.3853 10.9255ZM15.3853 6.01087C14.0763 6.01087 13.0116 7.07611 13.0116 8.38577C13.0116 9.69543 14.0763 10.7607 15.3853 10.7607C16.6943 10.7607 17.759 9.69543 17.759 8.38577C17.759 7.07611 16.6943 6.01087 15.3853 6.01087Z" fill="#E99D2D"/>
<path d="M16.4168 9.14542C16.4168 9.29435 16.3929 9.43305 16.3463 9.55924C16.2997 9.68543 16.2327 9.79457 16.1452 9.88665C16.0577 9.97874 15.9509 10.0504 15.8248 10.1027C15.6986 10.155 15.5577 10.18 15.3998 10.18C15.3828 10.18 15.3532 10.1731 15.3134 10.1606C15.2737 10.1481 15.2271 10.1254 15.1771 10.0924C15.1271 10.0595 15.0748 10.0174 15.0214 9.9651C14.968 9.9128 14.9192 9.84573 14.8737 9.76501C14.8282 9.68429 14.7919 9.58993 14.7635 9.48079C14.7351 9.37165 14.7203 9.24546 14.7203 9.10336V8.08473H14.084V7.81075H14.7203V7.06951L14.7089 7.06724C14.6771 7.08884 14.6419 7.09907 14.6067 7.09907C14.5805 7.09907 14.5555 7.09339 14.5305 7.08202C14.5055 7.07065 14.4828 7.05587 14.4635 7.03768C14.4442 7.01949 14.4283 6.99675 14.4158 6.97174C14.4033 6.94673 14.3976 6.91831 14.3976 6.88875C14.3976 6.86147 14.4033 6.83191 14.4158 6.80121C14.4283 6.77052 14.4453 6.74096 14.4703 6.71481C14.4953 6.68866 14.5249 6.66706 14.5601 6.65001C14.5953 6.63296 14.6374 6.625 14.6839 6.625C14.7487 6.625 14.8033 6.64092 14.8464 6.67388C14.8896 6.70685 14.926 6.74892 14.9532 6.80121C14.9805 6.85351 14.9998 6.91263 15.0123 6.97856C15.0248 7.0445 15.0305 7.11158 15.0305 7.17865V7.81188H16.7304V8.08587H15.0305V9.10449C15.0305 9.20113 15.0385 9.28753 15.0555 9.3637C15.0725 9.43987 15.0941 9.50694 15.1203 9.56492C15.1464 9.6229 15.1771 9.67292 15.2089 9.71385C15.2407 9.75478 15.2725 9.78775 15.3044 9.81389C15.3362 9.84004 15.3646 9.85937 15.3907 9.87074C15.4168 9.88211 15.4362 9.88893 15.4509 9.88893C15.5271 9.88893 15.6055 9.87187 15.6873 9.83663C15.7691 9.80139 15.8429 9.7525 15.9089 9.68998C15.9748 9.62745 16.0293 9.55242 16.0725 9.46374C16.1157 9.37507 16.1372 9.27843 16.1372 9.17157C16.1372 9.11927 16.1316 9.06698 16.1202 9.01241C16.1088 8.95784 16.0907 8.90327 16.0657 8.84415C16.0395 8.88053 16.01 8.91236 15.9782 8.93965C15.9464 8.96693 15.9111 8.98967 15.8759 9.009C15.8407 9.02832 15.8032 9.04197 15.7668 9.05106C15.7305 9.06016 15.6952 9.0647 15.6611 9.0647C15.6202 9.0647 15.5839 9.05788 15.5521 9.04424C15.5202 9.0306 15.4941 9.01241 15.4725 8.98853C15.4509 8.96466 15.435 8.93737 15.4248 8.90782C15.4146 8.87826 15.4089 8.84529 15.4089 8.81118C15.4089 8.74979 15.4214 8.69522 15.4464 8.64748C15.4714 8.59973 15.5043 8.55766 15.5452 8.52356C15.5862 8.48945 15.6327 8.4633 15.685 8.44511C15.7373 8.42692 15.7907 8.41783 15.8452 8.41783C15.9418 8.41783 16.027 8.43829 16.0986 8.48036C16.1702 8.52242 16.2304 8.57699 16.2781 8.6452C16.3259 8.71341 16.3611 8.79186 16.385 8.87939C16.4088 8.96693 16.4202 9.05674 16.4202 9.14769L16.4168 9.14542Z" fill="#E99D2D"/>
</g>
<defs>
<clipPath id="clip0_1_906">
<rect width="16" height="17" fill="white" transform="translate(3 3)"/>
</clipPath>
</defs>
</svg>
