<svg width="52" height="52" viewBox="0 0 52 52" fill="none" xmlns="http://www.w3.org/2000/svg">
<path d="M9.64038 26C9.64038 35.0342 16.9659 42.3655 26.0001 42.3655C35.0343 42.3655 42.3655 35.04 42.3655 26C42.3655 16.96 35.04 9.64032 26.0001 9.64032C16.9601 9.64032 9.64038 16.9658 9.64038 26Z" fill="url(#paint0_radial_1_1025)"/>
<path style="mix-blend-mode:overlay" d="M28.4939 24.3144C24.326 20.9316 22.6982 15.7882 24.8571 12.8153C27.0161 9.84237 32.148 10.1772 36.3158 13.5599C40.4837 16.9427 42.1058 22.0919 39.9468 25.0591C37.7821 28.032 32.656 27.6972 28.4881 24.3202L28.4939 24.3144Z" fill="url(#paint1_radial_1_1025)"/>
<path style="mix-blend-mode:overlay" opacity="0.4" d="M11.5395 29.6137C12.0937 27.8068 14.8992 28.5515 17.8086 31.2877C20.718 34.024 22.6345 37.7069 22.0804 39.5195C21.532 41.3264 18.7207 40.5817 15.8113 37.8455C12.9019 35.1092 10.9853 31.4263 11.5395 29.6137Z" fill="url(#paint2_radial_1_1025)"/>
<path d="M27.9857 4.80284C27.9857 5.89964 27.0968 6.78863 26 6.78863C24.9031 6.78863 24.0142 5.89964 24.0142 4.80284V1.98579C24.0142 0.888988 24.9031 0 26 0C27.0968 0 27.9857 0.888988 27.9857 1.98579V4.80284Z" fill="url(#paint3_radial_1_1025)"/>
<path d="M12.4112 9.60568C13.1847 10.3792 13.1847 11.6377 12.4112 12.4112C11.6376 13.1847 10.3792 13.1847 9.60565 12.4112L7.61409 10.4196C6.84055 9.64609 6.84055 8.38765 7.61409 7.61412C8.38762 6.84058 9.64606 6.84058 10.4196 7.61412L12.4112 9.60568Z" fill="url(#paint4_radial_1_1025)"/>
<path d="M4.80284 24.0142C5.89964 24.0142 6.78863 24.9032 6.78863 26C6.78863 27.0968 5.89964 27.9858 4.80284 27.9858H1.98579C0.888988 27.9858 0 27.0968 0 26C0 24.9032 0.888988 24.0142 1.98579 24.0142H4.80284Z" fill="url(#paint5_radial_1_1025)"/>
<path d="M9.60565 39.5888C10.3792 38.8153 11.6376 38.8153 12.4112 39.5888C13.1847 40.3624 13.1847 41.6208 12.4112 42.3943L10.4196 44.3859C9.64606 45.1594 8.38762 45.1594 7.61409 44.3859C6.84055 43.6124 6.84055 42.3539 7.61409 41.5804L9.60565 39.5888Z" fill="url(#paint6_radial_1_1025)"/>
<path d="M24.0142 47.2029C24.0142 46.1061 24.9031 45.2171 26 45.2171C27.0968 45.2171 27.9857 46.1061 27.9857 47.2029V50.02C27.9857 51.1168 27.0968 52.0058 26 52.0058C24.9031 52.0058 24.0142 51.1168 24.0142 50.02V47.2029Z" fill="url(#paint7_radial_1_1025)"/>
<path d="M39.5887 42.3943C38.8152 41.6208 38.8152 40.3624 39.5887 39.5888C40.3622 38.8153 41.6207 38.8153 42.3942 39.5888L44.3858 41.5804C45.1593 42.3539 45.1593 43.6124 44.3858 44.3859C43.6122 45.1594 42.3538 45.1594 41.5803 44.3859L39.5887 42.3943Z" fill="url(#paint8_radial_1_1025)"/>
<path d="M47.2028 27.9858C46.106 27.9858 45.217 27.0968 45.217 26C45.217 24.9032 46.106 24.0142 47.2028 24.0142H50.0199C51.1167 24.0142 52.0057 24.9032 52.0057 26C52.0057 27.0968 51.1167 27.9858 50.0199 27.9858H47.2028Z" fill="url(#paint9_radial_1_1025)"/>
<path d="M42.3942 12.4112C41.6207 13.1847 40.3622 13.1847 39.5887 12.4112C38.8152 11.6377 38.8152 10.3792 39.5887 9.60568L41.5803 7.61412C42.3538 6.84058 43.6122 6.84058 44.3858 7.61412C45.1593 8.38765 45.1593 9.64609 44.3858 10.4196L42.3942 12.4112Z" fill="url(#paint10_radial_1_1025)"/>
<defs>
<radialGradient id="paint0_radial_1_1025" cx="0" cy="0" r="1" gradientUnits="userSpaceOnUse" gradientTransform="translate(29.7407 15.742) rotate(-180) scale(31.0626)">
<stop stop-color="#FFF8C7"/>
<stop offset="0.16" stop-color="#FFE436"/>
<stop offset="1" stop-color="#FE761C"/>
</radialGradient>
<radialGradient id="paint1_radial_1_1025" cx="0" cy="0" r="1" gradientUnits="userSpaceOnUse" gradientTransform="translate(88.0288 -58.9989) rotate(126.03) scale(6.66995 9.70174)">
<stop stop-color="white"/>
<stop offset="0.1" stop-color="white" stop-opacity="0.85"/>
<stop offset="0.29" stop-color="white" stop-opacity="0.59"/>
<stop offset="0.47" stop-color="white" stop-opacity="0.38"/>
<stop offset="0.63" stop-color="white" stop-opacity="0.22"/>
<stop offset="0.78" stop-color="white" stop-opacity="0.1"/>
<stop offset="0.91" stop-color="white" stop-opacity="0.03"/>
<stop offset="1" stop-color="white" stop-opacity="0"/>
</radialGradient>
<radialGradient id="paint2_radial_1_1025" cx="0" cy="0" r="1" gradientUnits="userSpaceOnUse" gradientTransform="translate(440.71 439.438) rotate(-136.79) scale(7.23999 3.05789)">
<stop stop-color="white"/>
<stop offset="0.1" stop-color="white" stop-opacity="0.85"/>
<stop offset="0.29" stop-color="white" stop-opacity="0.59"/>
<stop offset="0.47" stop-color="white" stop-opacity="0.38"/>
<stop offset="0.63" stop-color="white" stop-opacity="0.22"/>
<stop offset="0.78" stop-color="white" stop-opacity="0.1"/>
<stop offset="0.91" stop-color="white" stop-opacity="0.03"/>
<stop offset="1" stop-color="white" stop-opacity="0"/>
</radialGradient>
<radialGradient id="paint3_radial_1_1025" cx="0" cy="0" r="1" gradientUnits="userSpaceOnUse" gradientTransform="translate(26.3636 1.00444) scale(5.4032 5.4032)">
<stop stop-color="#FFF8C7"/>
<stop offset="0.16" stop-color="#FFE436"/>
<stop offset="1" stop-color="#FE761C"/>
</radialGradient>
<radialGradient id="paint4_radial_1_1025" cx="0" cy="0" r="1" gradientUnits="userSpaceOnUse" gradientTransform="translate(8.58184 8.06541) rotate(-45) scale(5.4032)">
<stop stop-color="#FFF8C7"/>
<stop offset="0.16" stop-color="#FFE436"/>
<stop offset="1" stop-color="#FE761C"/>
</radialGradient>
<radialGradient id="paint5_radial_1_1025" cx="0" cy="0" r="1" gradientUnits="userSpaceOnUse" gradientTransform="translate(0.998668 25.6363) rotate(-90) scale(5.4032 5.4032)">
<stop stop-color="#FFF8C7"/>
<stop offset="0.16" stop-color="#FFE436"/>
<stop offset="1" stop-color="#FE761C"/>
</radialGradient>
<radialGradient id="paint6_radial_1_1025" cx="0" cy="0" r="1" gradientUnits="userSpaceOnUse" gradientTransform="translate(8.06394 43.4113) rotate(-135) scale(5.4032)">
<stop stop-color="#FFF8C7"/>
<stop offset="0.16" stop-color="#FFE436"/>
<stop offset="1" stop-color="#FE761C"/>
</radialGradient>
<radialGradient id="paint7_radial_1_1025" cx="0" cy="0" r="1" gradientUnits="userSpaceOnUse" gradientTransform="translate(25.642 50.9956) rotate(180) scale(5.4032 5.40319)">
<stop stop-color="#FFF8C7"/>
<stop offset="0.16" stop-color="#FFE436"/>
<stop offset="1" stop-color="#FE761C"/>
</radialGradient>
<radialGradient id="paint8_radial_1_1025" cx="0" cy="0" r="1" gradientUnits="userSpaceOnUse" gradientTransform="translate(43.4114 43.9308) rotate(135) scale(5.4032)">
<stop stop-color="#FFF8C7"/>
<stop offset="0.16" stop-color="#FFE436"/>
<stop offset="1" stop-color="#FE761C"/>
</radialGradient>
<radialGradient id="paint9_radial_1_1025" cx="0" cy="0" r="1" gradientUnits="userSpaceOnUse" gradientTransform="translate(51.0012 26.3637) rotate(90) scale(5.4032 5.40319)">
<stop stop-color="#FFF8C7"/>
<stop offset="0.16" stop-color="#FFE436"/>
<stop offset="1" stop-color="#FE761C"/>
</radialGradient>
<radialGradient id="paint10_radial_1_1025" cx="0" cy="0" r="1" gradientUnits="userSpaceOnUse" gradientTransform="translate(43.9252 8.58331) rotate(45) scale(5.4032)">
<stop stop-color="#FFF8C7"/>
<stop offset="0.16" stop-color="#FFE436"/>
<stop offset="1" stop-color="#FE761C"/>
</radialGradient>
</defs>
</svg>
