<svg width="26" height="26" viewBox="0 0 26 26" fill="none" xmlns="http://www.w3.org/2000/svg">
<rect width="26" height="26" rx="4" fill="#FAF5DD"/>
<g clip-path="url(#clip0_1_818)">
<path d="M17.1729 6.53125V8.76367C17.1728 10.3006 16.3086 11.6295 15.0566 12.2441C14.7802 12.3802 14.5986 12.6761 14.5986 13.0029C14.5987 13.3314 14.7802 13.6247 15.0566 13.7607C16.3086 14.3735 17.1727 15.7026 17.1729 17.2412V19.4736H9.82422V17.2412C9.8244 15.7044 10.6886 14.3753 11.9404 13.7607C12.2168 13.6248 12.3983 13.3296 12.3984 13.0029C12.3984 12.6744 12.217 12.3802 11.9404 12.2441C10.6885 11.6313 9.82422 10.3023 9.82422 8.76367V6.53125H17.1729Z" fill="#FAF5DD" stroke="#D9BD1D" stroke-width="0.25"/>
<path d="M16.3648 17.2367V18.6261H10.6328V17.2367C10.6328 16.9744 10.6648 16.7177 10.7287 16.4722H13.2068V12.9977C13.2068 12.3504 12.8464 11.7533 12.2873 11.4799C11.9819 11.3292 11.7068 11.1265 11.4742 10.8828H15.5216C15.2908 11.1265 15.0174 11.3292 14.7121 11.4799C14.1512 11.7552 13.7908 12.3504 13.7908 12.9977V16.4722H16.2689C16.3328 16.7177 16.3648 16.9744 16.3648 17.2367Z" fill="#D9BD1D"/>
<path d="M11.5 10.1858L12.1713 9L12.0105 9.81423H12.5L11.8217 11L11.9895 10.1858H11.5Z" fill="#D9BD1D"/>
<path d="M12.5 8.18577L13.1713 7L13.0105 7.81423H13.5L12.8217 9L12.9895 8.18577H12.5Z" fill="#D9BD1D"/>
<path d="M14.5 9.18577L15.1713 8L15.0105 8.81423H15.5L14.8217 10L14.9895 9.18577H14.5Z" fill="#D9BD1D"/>
<path d="M11.5 17.1858L12.1713 16L12.0105 16.8142H12.5L11.8217 18L11.9895 17.1858H11.5Z" fill="white"/>
<path d="M14.5 18.1858L15.1713 17L15.0105 17.8142H15.5L14.8217 19L14.9895 18.1858H14.5Z" fill="white"/>
<path d="M17.2118 5H9.78817C9.35287 5 9 5.36975 9 5.82585C9 6.28196 9.35287 6.65171 9.78817 6.65171H17.2118C17.6471 6.65171 18 6.28196 18 5.82585C18 5.36975 17.6471 5 17.2118 5Z" fill="#D9BD1D"/>
<path d="M17.2101 21.0033H9.78817C9.35325 21.0033 9 20.6331 9 20.1774C9 19.7217 9.35325 19.3516 9.78817 19.3516H17.2101C17.645 19.3516 17.9982 19.7217 17.9982 20.1774C17.9982 20.6331 17.645 21.0033 17.2101 21.0033Z" fill="#D9BD1D"/>
</g>
<defs>
<clipPath id="clip0_1_818">
<rect width="9" height="16" fill="white" transform="translate(9 5)"/>
</clipPath>
</defs>
</svg>
